<svg width="14" height="16" viewBox="0 0 14 16" fill="none" xmlns="http://www.w3.org/2000/svg">
<path fill-rule="evenodd" clip-rule="evenodd" d="M9.35273 2.18182H12.3636C12.7636 2.18182 13.0909 2.50909 13.0909 2.90909C13.0909 3.30909 12.7636 3.63636 12.3636 3.63636H0.727273C0.327273 3.63636 0 3.30909 0 2.90909C0 2.50909 0.327273 2.18182 0.727273 2.18182H3.73818C4.06545 0.930909 5.19273 0 6.54545 0C7.89818 0 9.02545 0.930909 9.35273 2.18182ZM1.45456 4.36364H11.6364C11.84 4.36364 12.0291 4.45091 12.1673 4.59636C12.3055 4.74182 12.3782 4.93818 12.3636 5.14182L11.7309 13.9709C11.6509 15.1127 10.6982 16 9.55636 16H3.53456C2.40001 16 1.44001 15.1127 1.36001 13.9709L0.727287 5.14182C0.712742 4.93818 0.785469 4.74182 0.923651 4.59636C1.06183 4.45091 1.25092 4.36364 1.45456 4.36364Z" fill="#FF416E"/>
</svg>
